<?xml version="1.0" standalone="no"?>
<!DOCTYPE svg PUBLIC "-//W3C//DTD SVG 20010904//EN"
 "http://www.w3.org/TR/2001/REC-SVG-20010904/DTD/svg10.dtd">
<svg version="1.0" xmlns="http://www.w3.org/2000/svg"
 width="512.000000pt" height="512.000000pt" viewBox="0 0 512.000000 512.000000"
 preserveAspectRatio="xMidYMid meet">

<g transform="translate(0.000000,512.000000) scale(0.100000,-0.100000)"
fill="#000000" stroke="none">
<path d="M757 5029 c-23 -14 -517 -1001 -517 -1034 0 -14 11 -37 25 -50 l24
-25 511 0 511 0 24 25 c14 13 25 36 25 50 0 35 -495 1021 -519 1035 -25 13
-61 12 -84 -1z m221 -604 l172 -345 -350 0 -350 0 172 345 c95 190 175 345
178 345 3 0 83 -155 178 -345z"/>
<path d="M4460 5024 c-64 -23 -125 -68 -158 -117 -33 -46 -62 -124 -62 -162 0
-24 2 -25 78 -25 l78 0 12 44 c31 116 177 154 263 67 100 -100 30 -271 -111
-271 -19 0 -40 -9 -55 -25 -24 -23 -25 -29 -25 -160 l0 -135 80 0 80 0 0 83 0
82 65 34 c72 37 103 68 143 145 22 43 26 64 26 136 1 100 -23 159 -89 225 -82
82 -222 116 -325 79z"/>
<path d="M3438 4718 l-46 -62 61 -46 61 -45 -877 -3 -877 -2 0 -80 0 -80 877
-2 877 -3 -61 -45 -61 -46 44 -58 c24 -33 46 -61 48 -64 3 -2 82 53 176 123
238 178 238 172 2 349 -93 69 -171 126 -174 126 -2 0 -25 -28 -50 -62z"/>
<path d="M4480 4000 l0 -80 80 0 80 0 0 80 0 80 -80 0 -80 0 0 -80z"/>
<path d="M4460 3144 c-64 -23 -125 -68 -158 -117 -33 -46 -62 -124 -62 -162 0
-24 2 -25 78 -25 l78 0 12 44 c31 116 177 154 263 67 100 -100 30 -271 -111
-271 -19 0 -40 -9 -55 -25 -24 -23 -25 -29 -25 -160 l0 -135 80 0 80 0 0 83 0
82 65 34 c72 37 103 68 143 145 22 43 26 64 26 136 1 100 -23 159 -89 225 -82
82 -222 116 -325 79z"/>
<path d="M265 3095 l-25 -24 0 -511 0 -511 25 -24 24 -25 511 0 511 0 24 25
25 24 0 511 0 511 -25 24 -24 25 -511 0 -511 0 -24 -25z m935 -535 l0 -400
-400 0 -400 0 0 400 0 400 400 0 400 0 0 -400z"/>
<path d="M3438 2798 l-46 -62 61 -46 61 -45 -877 -3 -877 -2 0 -80 0 -80 877
-2 877 -3 -61 -45 -61 -46 44 -58 c24 -33 46 -61 48 -64 3 -2 82 53 176 123
238 178 238 172 2 349 -93 69 -171 126 -174 126 -2 0 -25 -28 -50 -62z"/>
<path d="M4480 2120 l0 -80 80 0 80 0 0 80 0 80 -80 0 -80 0 0 -80z"/>
<path d="M695 1191 c-237 -52 -413 -237 -447 -470 -52 -354 242 -668 598 -638
229 20 413 169 490 397 26 76 26 244 0 320 -80 238 -271 386 -511 395 -49 2
-108 0 -130 -4z m269 -189 c91 -42 149 -100 194 -190 35 -72 37 -81 37 -172 0
-91 -2 -100 -37 -172 -45 -91 -103 -147 -196 -191 -61 -29 -76 -32 -162 -32
-86 0 -101 3 -162 32 -93 44 -151 100 -196 191 -35 72 -37 81 -37 171 0 87 3
102 32 163 40 85 97 147 172 186 78 42 122 52 213 48 61 -3 92 -11 142 -34z"/>
<path d="M4460 1184 c-64 -23 -125 -68 -158 -117 -33 -46 -62 -124 -62 -162 0
-24 2 -25 78 -25 l78 0 12 44 c31 116 177 154 263 67 100 -100 30 -271 -111
-271 -19 0 -40 -9 -55 -25 -24 -23 -25 -29 -25 -160 l0 -135 80 0 80 0 0 83 0
82 65 34 c72 37 103 68 143 145 22 43 26 64 26 136 1 100 -23 159 -89 225 -82
82 -222 116 -325 79z"/>
<path d="M3438 878 l-46 -62 61 -46 61 -45 -877 -3 -877 -2 0 -80 0 -80 877
-2 877 -3 -61 -45 -61 -46 44 -58 c24 -33 46 -61 48 -64 3 -2 82 53 176 123
238 178 238 172 2 349 -93 69 -171 126 -174 126 -2 0 -25 -28 -50 -62z"/>
<path d="M4480 160 l0 -80 80 0 80 0 0 80 0 80 -80 0 -80 0 0 -80z"/>
</g>
</svg>
